# xmcd
#
# Track frame offsets:
#	150
#	17253
#	25100
#	33680
#	45030
#	60078
#	70555
#	87278
#
# Disc length: 1366 seconds
#
# Revision: 1
# Processed by: cddbd v1.5.1PL0 Copyright (c) Steve Scherf et al.
# Submitted via: CDex 1.50Beta5
#
DISCID=49055408
DTITLE=おじゃる丸 - おじゃる丸 そんぐ・これくしょん
DYEAR=2003
DGENRE=Music
TTITLE0=おじゃる丸 カズマ 電ボ/プリンでおじゃる
TTITLE1=子鬼トリオ/子鬼トリオのテーマ
TTITLE2=おじゃる丸・カズマ・電ボ・金ちゃん・小町ちゃん・オカメ姫・子鬼トリオ/あっちむいてホイでおじゃる
TTITLE3=電ボ/恋をいたしましょう
TTITLE4=おじゃる丸 カズマ 電ボ/まったり音頭
TTITLE5=貧ちゃん/この町いつも〜貧ちゃんのうた〜
TTITLE6=SUS4/プリン賛歌
TTITLE7=北島三郎/詠人
EXTD=
EXTT0=
EXTT1=
EXTT2=
EXTT3=
EXTT4=
EXTT5=
EXTT6=
EXTT7=
PLAYORDER=
